<svg xmlns="http://www.w3.org/2000/svg" viewBox="0 0 1600 1000" role="img" aria-labelledby="title desc">
  <title id="title">BrightSmile Dental project preview</title>
  <desc id="desc">A calm blue dental clinic website interface with a hero message and appointment card.</desc>
  <defs>
    <linearGradient id="bg" x1="0" y1="0" x2="1" y2="1"><stop stop-color="#0b1933"/><stop offset="1" stop-color="#155e91"/></linearGradient>
    <linearGradient id="card" x1="0" y1="0" x2="1" y2="1"><stop stop-color="#ffffff"/><stop offset="1" stop-color="#e9f6ff"/></linearGradient>
  </defs>
  <rect width="1600" height="1000" fill="url(#bg)"/>
  <circle cx="1360" cy="80" r="330" fill="#73d5d0" opacity=".18"/>
  <circle cx="150" cy="900" r="300" fill="#60a5fa" opacity=".15"/>
  <rect x="120" y="112" width="1360" height="776" rx="36" fill="#f8fcff" opacity=".98"/>
  <rect x="120" y="112" width="1360" height="78" rx="36" fill="#ffffff"/>
  <circle cx="174" cy="151" r="20" fill="#2aa9a0"/>
  <path d="M166 151h16M174 143v16" stroke="#fff" stroke-width="5" stroke-linecap="round"/>
  <text x="210" y="159" font-family="Arial,sans-serif" font-size="25" font-weight="700" fill="#10233e">BrightSmile</text>
  <text x="1110" y="159" font-family="Arial,sans-serif" font-size="15" fill="#52657d">Services   About   Contact</text>
  <rect x="134" y="206" width="1332" height="490" rx="26" fill="#e9f8fa"/>
  <text x="200" y="315" font-family="Arial,sans-serif" font-size="22" font-weight="700" fill="#148b8a">CALM, CLEAR DENTAL CARE</text>
  <text x="200" y="390" font-family="Arial,sans-serif" font-size="62" font-weight="700" fill="#10233e">Feel confident</text>
  <text x="200" y="458" font-family="Arial,sans-serif" font-size="62" font-weight="700" fill="#10233e">about your smile.</text>
  <text x="202" y="508" font-family="Arial,sans-serif" font-size="21" fill="#52657d">Modern care, explained simply, with a team that listens.</text>
  <rect x="202" y="558" width="196" height="58" rx="29" fill="#167f85"/>
  <text x="250" y="595" font-family="Arial,sans-serif" font-size="17" font-weight="700" fill="#fff">Request a visit</text>
  <rect x="956" y="268" width="354" height="306" rx="26" fill="url(#card)" stroke="#d7e6ef" stroke-width="3"/>
  <circle cx="1132" cy="350" r="62" fill="#d9f4f1"/>
  <path d="M1104 346c4-33 52-33 57 0l-5 69c-3 27-45 27-48 0z" fill="#fff" stroke="#167f85" stroke-width="7"/>
  <path d="M1118 369h29M1117 393h31" stroke="#b6dfe0" stroke-width="7" stroke-linecap="round"/>
  <text x="1030" y="487" font-family="Arial,sans-serif" font-size="20" font-weight="700" fill="#10233e">A brighter first step</text>
  <text x="1020" y="522" font-family="Arial,sans-serif" font-size="16" fill="#52657d">Easy appointments, helpful answers.</text>
  <rect x="134" y="728" width="1332" height="112" rx="22" fill="#10233e"/>
  <text x="196" y="778" font-family="Arial,sans-serif" font-size="15" fill="#9fb6cc">PATIENT-FIRST EXPERIENCE</text>
  <text x="196" y="813" font-family="Arial,sans-serif" font-size="23" font-weight="700" fill="#fff">Services · FAQs · Appointment requests · Mobile-first</text>
</svg>